<svg width="400" height="400" viewBox="0 0 400 400" fill="none" xmlns="http://www.w3.org/2000/svg">
<g clip-path="url(#clip0)">
<path d="M400 0H0V400H400V0Z" fill="#287793"/>
<path opacity="0.2" d="M248.9 224.9V234.2C248.8 234.7 248.7 235.2 248.6 235.7C248.1 239.8 247.8 243.8 247.1 247.9C244.9 261 240.2 273.2 233.2 284.4C222.6 301.5 208.2 314.5 190.1 323.4C179.7 328.6 168.4 331.9 156.9 333.2C154.3 333.5 151.8 333.8 149.2 334H49.8C49.3 333.9 48.8 333.8 48.3 333.7C38.3 333.1 28.6 330.8 19.4 326.8C-0.599998 318 -15.6 303.8 -25.4 284.2C-29.7 275.6 -32.5 266.3 -33.7 256.7C-34 254.4 -34.3 252 -34.5 249.7V240.6C-34.4 240.1 -34.3 239.6 -34.2 239.1C-33.7 230.4 -31.9 222 -28.8 213.8C-20.3 192 -5.6 175.8 15.3 165.3C26.2 159.9 37.8 157 49.9 156.4C55.8 156.1 61.8 156.4 67.7 157.2C68.2 157.3 69 157 69.4 156.7C77.9 148 87.5 141 98.4 135.7C109 130.5 120.1 127.2 131.8 125.9C134.6 125.6 137.3 125.3 140.1 125H148.6C149.2 125.1 149.7 125.2 150.3 125.2C154.5 125.7 158.7 126 162.9 126.7C175.9 128.9 188 133.5 199.2 140.5C216.4 151.1 229.5 165.5 238.4 183.6C243.6 194 246.9 205.3 248.2 216.8C248.4 219.5 248.6 222.2 248.9 224.9ZM90.4 164.5C90.6 164.7 90.6 164.8 90.7 164.9C96.5 167.8 102.1 171.1 107.4 175C107.7 175.2 108.6 175.1 109 174.9C123.4 165.8 139.1 162.6 155.9 165.6C172.4 168.5 185.8 176.8 196 189.9C207.6 204.8 212 221.6 208.8 240.3C206.7 252.8 201.6 264.1 193.1 273.5C177.5 290.7 158 297.8 135 294.8C120.9 292.9 108.7 286.8 98.5 276.6C85.5 263.5 72.5 250.5 59.5 237.4C57.8 235.7 55.8 234.3 53.3 234C48.9 233.5 45 235.6 43.1 239.6C41.4 243.1 41.6 247 45.3 250.6C59.8 264.8 74.2 279.2 88.6 293.4C91.1 295.9 93.7 298.1 96.6 300.2C107.2 307.9 119.1 312.1 132 313.8C142.1 315.1 152.2 314.9 162.2 312.6C181.2 308.3 197 298.6 209.4 283.6C219.7 271.2 225.9 257 228 241C229.3 231.9 229 222.6 227.2 213.6C224.3 198.8 218.1 185.6 208.1 174.4C189 153 165 143.4 136.4 145.5C125.4 146.3 115 149.6 105.2 154.7C100 157.4 95 160.7 90.4 164.5ZM83.4 314.2C83 313.8 82.6 313.5 82.2 313.1C76.3 307.5 70.3 301.9 64.5 296.3C63.4 295.2 62.3 294.7 60.7 294.7C54.8 294.8 48.8 294.9 43 293.5C13.9 286.9 -2.9 255.3 7.8 227.5C16.2 205.6 39.6 192.2 62.7 196.3C73 198.1 82.1 202.5 89.6 210.2C98.7 219.6 108 228.7 117.2 238C119.3 240.1 121.7 241.1 124.6 240.7C128.3 240.2 131.3 238.4 132.7 234.7C134 231.1 133.4 227.7 130.6 224.9C121 215.1 111.6 205.1 101.5 195.8C82.1 177.7 59.1 172.3 33.8 180C-0.299995 190.4 -20.3 225.6 -12.5 260.3C-5.4 292 22.3 314.2 54.7 314.2C63.7 314.2 72.8 314.2 81.8 314.2C82.3 314.3 82.7 314.2 83.4 314.2Z" fill="#86D1F2"/>
<path opacity="0.4" d="M397 166.5C437 166.5 469.5 134 469.5 94C469.5 54 437 21.5 397 21.5C357 21.5 324.5 54 324.5 94C324.5 134 357 166.5 397 166.5Z" stroke="#105E5E" stroke-width="3" stroke-miterlimit="10" stroke-linecap="round" stroke-linejoin="round"/>
<path opacity="0.3" d="M397 149.9C428 149.9 452.9 124.8 452.9 94C452.9 63 427.8 38.1 397 38.1C366 38.1 341.1 63.2 341.1 94C341.1 125 366 149.9 397 149.9Z" fill="#105E5E"/>
<path opacity="0.35" d="M397 114.4C408.3 114.4 417.4 105.3 417.4 94C417.4 82.7 408.3 73.6 397 73.6C385.7 73.6 376.6 82.7 376.6 94C376.6 105.3 385.7 114.4 397 114.4Z" fill="#105E5E"/>
</g>
<defs>
<clipPath id="clip0">
<rect width="400" height="400" fill="white"/>
</clipPath>
</defs>
</svg>
